<mxfile host="app.diagrams.net" agent="Mozilla/5.0 (Macintosh; Intel Mac OS X 10_15_7) AppleWebKit/537.36 (KHTML, like Gecko) Chrome/134.0.0.0 Safari/537.36" version="26.1.1">
  <diagram name="第 1 页" id="4Vs28U_Q85TzWBn4Ho3j">
    <mxGraphModel dx="1026" dy="684" grid="1" gridSize="10" guides="1" tooltips="1" connect="1" arrows="1" fold="1" page="1" pageScale="1" pageWidth="827" pageHeight="1169" math="0" shadow="0">
      <root>
        <mxCell id="0" />
        <mxCell id="1" parent="0" />
        <mxCell id="QwT9ti2HtJxZUbDHYnsx-5" style="edgeStyle=orthogonalEdgeStyle;rounded=0;orthogonalLoop=1;jettySize=auto;html=1;entryX=0;entryY=0.5;entryDx=0;entryDy=0;" edge="1" parent="1" source="QwT9ti2HtJxZUbDHYnsx-2" target="QwT9ti2HtJxZUbDHYnsx-4">
          <mxGeometry relative="1" as="geometry" />
        </mxCell>
        <mxCell id="QwT9ti2HtJxZUbDHYnsx-9" style="edgeStyle=orthogonalEdgeStyle;rounded=0;orthogonalLoop=1;jettySize=auto;html=1;entryX=0;entryY=0.5;entryDx=0;entryDy=0;dashed=1;" edge="1" parent="1" source="QwT9ti2HtJxZUbDHYnsx-2" target="QwT9ti2HtJxZUbDHYnsx-7">
          <mxGeometry relative="1" as="geometry" />
        </mxCell>
        <mxCell id="QwT9ti2HtJxZUbDHYnsx-2" value="Jedis" style="rounded=1;whiteSpace=wrap;html=1;fillColor=#dae8fc;strokeColor=#6c8ebf;" vertex="1" parent="1">
          <mxGeometry x="130" y="290" width="90" height="40" as="geometry" />
        </mxCell>
        <mxCell id="QwT9ti2HtJxZUbDHYnsx-4" value="redis服务端" style="rounded=1;whiteSpace=wrap;html=1;fillColor=#f8cecc;strokeColor=#b85450;" vertex="1" parent="1">
          <mxGeometry x="450" y="290" width="90" height="40" as="geometry" />
        </mxCell>
        <mxCell id="QwT9ti2HtJxZUbDHYnsx-6" value="set key value" style="text;html=1;align=center;verticalAlign=middle;whiteSpace=wrap;rounded=0;" vertex="1" parent="1">
          <mxGeometry x="290" y="280" width="80" height="30" as="geometry" />
        </mxCell>
        <mxCell id="QwT9ti2HtJxZUbDHYnsx-10" value="" style="edgeStyle=orthogonalEdgeStyle;rounded=0;orthogonalLoop=1;jettySize=auto;html=1;dashed=1;" edge="1" parent="1" source="QwT9ti2HtJxZUbDHYnsx-7" target="QwT9ti2HtJxZUbDHYnsx-8">
          <mxGeometry relative="1" as="geometry" />
        </mxCell>
        <mxCell id="QwT9ti2HtJxZUbDHYnsx-7" value="先将key value转换为byte[]" style="rounded=1;whiteSpace=wrap;html=1;fillColor=#ffe6cc;strokeColor=#d79b00;" vertex="1" parent="1">
          <mxGeometry x="220" y="370" width="80" height="40" as="geometry" />
        </mxCell>
        <mxCell id="QwT9ti2HtJxZUbDHYnsx-11" style="edgeStyle=orthogonalEdgeStyle;rounded=0;orthogonalLoop=1;jettySize=auto;html=1;entryX=0.5;entryY=1;entryDx=0;entryDy=0;dashed=1;" edge="1" parent="1" source="QwT9ti2HtJxZUbDHYnsx-8" target="QwT9ti2HtJxZUbDHYnsx-4">
          <mxGeometry relative="1" as="geometry" />
        </mxCell>
        <mxCell id="QwT9ti2HtJxZUbDHYnsx-8" value="按照resp协议将byte[]发送给redis服务端" style="rounded=1;whiteSpace=wrap;html=1;fillColor=#ffe6cc;strokeColor=#d79b00;" vertex="1" parent="1">
          <mxGeometry x="340" y="370" width="80" height="40" as="geometry" />
        </mxCell>
        <mxCell id="QwT9ti2HtJxZUbDHYnsx-12" value="底层实现" style="text;html=1;align=center;verticalAlign=middle;whiteSpace=wrap;rounded=0;" vertex="1" parent="1">
          <mxGeometry x="290" y="340" width="60" height="30" as="geometry" />
        </mxCell>
      </root>
    </mxGraphModel>
  </diagram>
</mxfile>
